<?xml version="1.0" encoding="UTF-8"?>
<svg xmlns="http://www.w3.org/2000/svg" xmlns:xlink="http://www.w3.org/1999/xlink" width="20px" height="20px" viewBox="0 0 20 20" version="1.1">
<defs>
<radialGradient id="radial0" gradientUnits="userSpaceOnUse" cx="199.788406" cy="628.437927" fx="199.788406" fy="628.437927" r="52.351501" gradientTransform="matrix(-0.234933,0.0662566,-0.0477354,-0.169258,96.28988,102.504979)">
<stop offset="0" style="stop-color:rgb(100%,0%,37.254902%);stop-opacity:1;"/>
<stop offset="1" style="stop-color:rgb(98.823529%,0.392157%,84.705882%);stop-opacity:1;"/>
</radialGradient>
<radialGradient id="radial1" gradientUnits="userSpaceOnUse" cx="158.429001" cy="578.088013" fx="158.429001" fy="578.088013" r="52.351501" gradientTransform="matrix(0,-0.304946,0.323541,0,-181.722934,69.852682)">
<stop offset="0" style="stop-color:rgb(100%,80%,0%);stop-opacity:1;"/>
<stop offset="0.1242" style="stop-color:rgb(100%,80%,0%);stop-opacity:1;"/>
<stop offset="0.5672" style="stop-color:rgb(99.607843%,29.019608%,1.960784%);stop-opacity:1;"/>
<stop offset="0.6942" style="stop-color:rgb(100%,5.882353%,24.705882%);stop-opacity:1;"/>
<stop offset="1" style="stop-color:rgb(99.607843%,2.352941%,34.117647%);stop-opacity:0;"/>
</radialGradient>
<radialGradient id="radial2" gradientUnits="userSpaceOnUse" cx="172.614899" cy="600.692383" fx="172.614899" fy="600.692383" r="65" gradientTransform="matrix(0.050979,-0.0878385,0.114356,0.0663693,-66.986932,-4.987336)">
<stop offset="0" style="stop-color:rgb(100%,80%,0%);stop-opacity:1;"/>
<stop offset="1" style="stop-color:rgb(100%,80%,0%);stop-opacity:0;"/>
</radialGradient>
<radialGradient id="radial3" gradientUnits="userSpaceOnUse" cx="144.011993" cy="51.3367" fx="144.011993" fy="51.3367" r="67.081001" gradientTransform="matrix(-0.181334,0.0510607,-0.0173919,-0.0617817,29.72071,-3.367287)">
<stop offset="0" style="stop-color:rgb(47.058824%,4.705882%,100%);stop-opacity:1;"/>
<stop offset="1" style="stop-color:rgb(50.980392%,4.313725%,100%);stop-opacity:0;"/>
</radialGradient>
</defs>
<g id="surface1">
<path style=" stroke:none;fill-rule:nonzero;fill:url(#radial0);" d="M 10.003906 0 C 5.828125 0 4.605469 0.00390625 4.371094 0.0234375 C 3.511719 0.09375 2.980469 0.230469 2.398438 0.519531 C 1.953125 0.742188 1.597656 1 1.25 1.359375 C 0.617188 2.019531 0.230469 2.832031 0.09375 3.792969 C 0.0234375 4.261719 0.00390625 4.355469 0 6.746094 C 0 7.542969 0 8.589844 0 9.996094 C 0 14.167969 0.00390625 15.390625 0.0234375 15.625 C 0.09375 16.460938 0.226562 16.984375 0.503906 17.558594 C 1.03125 18.65625 2.042969 19.480469 3.230469 19.789062 C 3.644531 19.894531 4.101562 19.953125 4.683594 19.980469 C 4.933594 19.992188 7.457031 20 9.980469 20 C 12.507812 20 15.035156 19.996094 15.273438 19.984375 C 15.953125 19.953125 16.34375 19.898438 16.777344 19.789062 C 17.976562 19.476562 18.96875 18.667969 19.507812 17.550781 C 19.78125 16.992188 19.917969 16.449219 19.980469 15.65625 C 19.996094 15.484375 20 12.738281 20 9.992188 C 20 7.25 19.992188 4.507812 19.980469 4.335938 C 19.917969 3.53125 19.78125 2.992188 19.5 2.421875 C 19.269531 1.953125 19.015625 1.605469 18.644531 1.246094 C 17.980469 0.617188 17.171875 0.230469 16.207031 0.0898438 C 15.742188 0.0234375 15.648438 0.00390625 13.257812 0 Z M 10.003906 0 "/>
<path style=" stroke:none;fill-rule:nonzero;fill:url(#radial1);" d="M 10.003906 0 C 5.828125 0 4.605469 0.00390625 4.371094 0.0234375 C 3.511719 0.09375 2.980469 0.230469 2.398438 0.519531 C 1.953125 0.742188 1.597656 1 1.25 1.359375 C 0.617188 2.019531 0.230469 2.832031 0.09375 3.792969 C 0.0234375 4.261719 0.00390625 4.355469 0 6.746094 C 0 7.542969 0 8.589844 0 9.996094 C 0 14.167969 0.00390625 15.390625 0.0234375 15.625 C 0.09375 16.460938 0.226562 16.984375 0.503906 17.558594 C 1.03125 18.65625 2.042969 19.480469 3.230469 19.789062 C 3.644531 19.894531 4.101562 19.953125 4.683594 19.980469 C 4.933594 19.992188 7.457031 20 9.980469 20 C 12.507812 20 15.035156 19.996094 15.273438 19.984375 C 15.953125 19.953125 16.34375 19.898438 16.777344 19.789062 C 17.976562 19.476562 18.96875 18.667969 19.507812 17.550781 C 19.78125 16.992188 19.917969 16.449219 19.980469 15.65625 C 19.996094 15.484375 20 12.738281 20 9.992188 C 20 7.25 19.992188 4.507812 19.980469 4.335938 C 19.917969 3.53125 19.78125 2.992188 19.5 2.421875 C 19.269531 1.953125 19.015625 1.605469 18.644531 1.246094 C 17.980469 0.617188 17.171875 0.230469 16.207031 0.0898438 C 15.742188 0.0234375 15.648438 0.00390625 13.257812 0 Z M 10.003906 0 "/>
<path style=" stroke:none;fill-rule:nonzero;fill:url(#radial2);" d="M 10.003906 0 C 5.828125 0 4.605469 0.00390625 4.371094 0.0234375 C 3.511719 0.09375 2.980469 0.230469 2.398438 0.519531 C 1.953125 0.742188 1.597656 1 1.25 1.359375 C 0.617188 2.019531 0.230469 2.832031 0.09375 3.792969 C 0.0234375 4.261719 0.00390625 4.355469 0 6.746094 C 0 7.542969 0 8.589844 0 9.996094 C 0 14.167969 0.00390625 15.390625 0.0234375 15.625 C 0.09375 16.460938 0.226562 16.984375 0.503906 17.558594 C 1.03125 18.65625 2.042969 19.480469 3.230469 19.789062 C 3.644531 19.894531 4.101562 19.953125 4.683594 19.980469 C 4.933594 19.992188 7.457031 20 9.980469 20 C 12.507812 20 15.035156 19.996094 15.273438 19.984375 C 15.953125 19.953125 16.34375 19.898438 16.777344 19.789062 C 17.976562 19.476562 18.96875 18.667969 19.507812 17.550781 C 19.78125 16.992188 19.917969 16.449219 19.980469 15.65625 C 19.996094 15.484375 20 12.738281 20 9.992188 C 20 7.25 19.992188 4.507812 19.980469 4.335938 C 19.917969 3.53125 19.78125 2.992188 19.5 2.421875 C 19.269531 1.953125 19.015625 1.605469 18.644531 1.246094 C 17.980469 0.617188 17.171875 0.230469 16.207031 0.0898438 C 15.742188 0.0234375 15.648438 0.00390625 13.257812 0 Z M 10.003906 0 "/>
<path style=" stroke:none;fill-rule:nonzero;fill:url(#radial3);" d="M 10.003906 0 C 5.828125 0 4.605469 0.00390625 4.371094 0.0234375 C 3.511719 0.09375 2.980469 0.230469 2.398438 0.519531 C 1.953125 0.742188 1.597656 1 1.25 1.359375 C 0.617188 2.019531 0.230469 2.832031 0.09375 3.792969 C 0.0234375 4.261719 0.00390625 4.355469 0 6.746094 C 0 7.542969 0 8.589844 0 9.996094 C 0 14.167969 0.00390625 15.390625 0.0234375 15.625 C 0.09375 16.460938 0.226562 16.984375 0.503906 17.558594 C 1.03125 18.65625 2.042969 19.480469 3.230469 19.789062 C 3.644531 19.894531 4.101562 19.953125 4.683594 19.980469 C 4.933594 19.992188 7.457031 20 9.980469 20 C 12.507812 20 15.035156 19.996094 15.273438 19.984375 C 15.953125 19.953125 16.34375 19.898438 16.777344 19.789062 C 17.976562 19.476562 18.96875 18.667969 19.507812 17.550781 C 19.78125 16.992188 19.917969 16.449219 19.980469 15.65625 C 19.996094 15.484375 20 12.738281 20 9.992188 C 20 7.25 19.992188 4.507812 19.980469 4.335938 C 19.917969 3.53125 19.78125 2.992188 19.5 2.421875 C 19.269531 1.953125 19.015625 1.605469 18.644531 1.246094 C 17.980469 0.617188 17.171875 0.230469 16.207031 0.0898438 C 15.742188 0.0234375 15.648438 0.00390625 13.257812 0 Z M 10.003906 0 "/>
<path style=" stroke:none;fill-rule:nonzero;fill:rgb(100%,100%,100%);fill-opacity:1;" d="M 10.003906 2.566406 C 7.984375 2.566406 7.730469 2.578125 6.9375 2.613281 C 6.144531 2.648438 5.605469 2.773438 5.132812 2.957031 C 4.644531 3.148438 4.230469 3.402344 3.816406 3.816406 C 3.402344 4.226562 3.148438 4.640625 2.957031 5.132812 C 2.773438 5.605469 2.648438 6.144531 2.613281 6.933594 C 2.578125 7.726562 2.566406 7.980469 2.566406 10 C 2.566406 12.015625 2.578125 12.269531 2.613281 13.0625 C 2.648438 13.851562 2.773438 14.394531 2.957031 14.867188 C 3.148438 15.355469 3.402344 15.769531 3.816406 16.179688 C 4.226562 16.59375 4.644531 16.847656 5.132812 17.039062 C 5.605469 17.222656 6.144531 17.347656 6.9375 17.382812 C 7.730469 17.421875 7.984375 17.429688 10.003906 17.429688 C 12.023438 17.429688 12.277344 17.421875 13.070312 17.382812 C 13.859375 17.347656 14.402344 17.222656 14.875 17.039062 C 15.363281 16.847656 15.777344 16.59375 16.191406 16.179688 C 16.605469 15.769531 16.859375 15.355469 17.050781 14.867188 C 17.230469 14.394531 17.355469 13.851562 17.394531 13.0625 C 17.429688 12.269531 17.4375 12.015625 17.4375 10 C 17.4375 7.980469 17.429688 7.726562 17.394531 6.933594 C 17.355469 6.144531 17.230469 5.605469 17.050781 5.132812 C 16.859375 4.640625 16.605469 4.226562 16.191406 3.816406 C 15.777344 3.402344 15.363281 3.148438 14.875 2.957031 C 14.398438 2.773438 13.859375 2.648438 13.066406 2.613281 C 12.273438 2.578125 12.023438 2.566406 10 2.566406 Z M 9.335938 3.90625 C 9.535156 3.90625 9.757812 3.90625 10.003906 3.90625 C 11.988281 3.90625 12.226562 3.914062 13.007812 3.949219 C 13.734375 3.984375 14.128906 4.105469 14.390625 4.207031 C 14.738281 4.339844 14.984375 4.5 15.242188 4.761719 C 15.503906 5.023438 15.664062 5.269531 15.800781 5.617188 C 15.902344 5.878906 16.023438 6.269531 16.054688 6.996094 C 16.09375 7.777344 16.101562 8.015625 16.101562 9.996094 C 16.101562 11.980469 16.09375 12.214844 16.054688 13 C 16.023438 13.722656 15.902344 14.117188 15.800781 14.378906 C 15.664062 14.726562 15.503906 14.972656 15.242188 15.230469 C 14.984375 15.492188 14.738281 15.652344 14.390625 15.789062 C 14.128906 15.890625 13.734375 16.011719 13.007812 16.042969 C 12.226562 16.078125 11.988281 16.085938 10.003906 16.085938 C 8.019531 16.085938 7.78125 16.078125 7 16.042969 C 6.273438 16.011719 5.878906 15.890625 5.617188 15.789062 C 5.269531 15.652344 5.023438 15.492188 4.761719 15.230469 C 4.503906 14.972656 4.34375 14.722656 4.207031 14.378906 C 4.105469 14.117188 3.984375 13.722656 3.949219 12.996094 C 3.914062 12.214844 3.90625 11.980469 3.90625 9.996094 C 3.90625 8.011719 3.914062 7.777344 3.949219 6.992188 C 3.984375 6.269531 4.105469 5.875 4.207031 5.613281 C 4.339844 5.265625 4.503906 5.019531 4.761719 4.757812 C 5.023438 4.5 5.269531 4.339844 5.617188 4.203125 C 5.878906 4.101562 6.273438 3.980469 7 3.945312 C 7.683594 3.917969 7.949219 3.90625 9.335938 3.90625 Z M 13.972656 5.140625 C 13.480469 5.140625 13.082031 5.539062 13.082031 6.03125 C 13.082031 6.523438 13.480469 6.925781 13.972656 6.925781 C 14.464844 6.925781 14.867188 6.523438 14.867188 6.03125 C 14.867188 5.539062 14.464844 5.140625 13.972656 5.140625 Z M 10.003906 6.183594 C 7.894531 6.183594 6.183594 7.890625 6.183594 10 C 6.183594 12.105469 7.894531 13.8125 10.003906 13.8125 C 12.113281 13.8125 13.820312 12.105469 13.820312 10 C 13.820312 7.890625 12.113281 6.183594 10.003906 6.183594 Z M 10.003906 7.523438 C 11.371094 7.523438 12.484375 8.628906 12.484375 10 C 12.484375 11.367188 11.371094 12.476562 10.003906 12.476562 C 8.636719 12.476562 7.523438 11.367188 7.523438 10 C 7.523438 8.628906 8.636719 7.523438 10.003906 7.523438 Z M 10.003906 7.523438 "/>
</g>
</svg>
