<svg xmlns="http://www.w3.org/2000/svg" viewBox="0 0 24 24" fill="none" stroke="white" stroke-width="2" stroke-linecap="round" stroke-linejoin="round">
  <path d="M21 12a9 9 0 1 1-3.1-6.9L21 3l-2.1 3.1A9 9 0 0 1 21 12z"/>
  <path d="M16 13c-.3-.2-1.8-.9-2-.9-.3 0-.5-.1-.7.2s-.8.9-1 .1a6.6 6.6 0 0 1-2-1.3 7.5 7.5 0 0 1-1.4-1.7c-.1-.3 0-.4.1-.6.1-.1.3-.3.4-.4.1-.1.2-.3.3-.4.1-.2 0-.4 0-.5s-.7-1.7-1-2.3c-.3-.6-.5-.5-.7-.5h-.6c-.2 0-.5.1-.7.3-.2.2-.8.8-.8 2s.8 2.3.9 2.4c.1.2 1.6 2.5 4 3.4.6.3 1 .4 1.4.5.6.2 1.1.2 1.5.1.5-.1 1.8-.7 2.1-1.4.3-.7.3-1.3.2-1.4-.1-.1-.3-.2-.6-.3z"/>
</svg>